<svg id="Layer_1" data-name="Layer 1" xmlns="http://www.w3.org/2000/svg" viewBox="0 0 617 617"><defs><style>.cls-1{fill:#10537a;}.cls-2{fill:#18a4ad;}.cls-3{fill:#126678;}.cls-4{fill:#0c3b5e;}.cls-5,.cls-6{fill:none;stroke:#fff;stroke-miterlimit:10;}.cls-5{stroke-width:6px;}.cls-6{stroke-width:3px;}</style></defs><title>Vector Smart Object</title><path class="cls-1" d="M10-755.94l240.65-42.43a245.17,245.17,0,0,1,3.68,42.43,245.17,245.17,0,0,1-3.68,42.43Z" transform="translate(298.5 1064.44)"/><path class="cls-2" d="M-254.19-908.47l52.56,30.35a242.43,242.43,0,0,0-29,79.75l-59.77-10.54-.49-.08a303.36,303.36,0,0,1,36.3-99.72Z" transform="translate(298.5 1064.44)"/><path class="cls-1" d="M10-755.94,167.06-943.11a245.32,245.32,0,0,1,54.57,65Z" transform="translate(298.5 1064.44)"/><path class="cls-1" d="M-201.63-878.12,10-755.94l-240.65-42.43A242.43,242.43,0,0,1-201.63-878.12Z" transform="translate(298.5 1064.44)"/><path class="cls-3" d="M10-1061v60.73a243.74,243.74,0,0,0-83.59,14.68l-20.75-57-.17-.49A304.88,304.88,0,0,1,10-1061.44Z" transform="translate(298.5 1064.44)"/><path class="cls-4" d="M-73.59-526.29,10-755.94v244.33A243.74,243.74,0,0,1-73.59-526.29Z" transform="translate(298.5 1064.44)"/><path class="cls-2" d="M274.19-603.41l.42.24a306.63,306.63,0,0,1-68.24,81.26l-.28-.34-39-46.52a245.32,245.32,0,0,0,54.57-65Z" transform="translate(298.5 1064.44)"/><path class="cls-3" d="M-186.09-989.63l39,46.52a245.32,245.32,0,0,0-54.57,65l-52.56-30.35-.42-.24A306.63,306.63,0,0,1-186.37-990Z" transform="translate(298.5 1064.44)"/><path class="cls-1" d="M93.59-985.59,10-755.94v-244.33A243.74,243.74,0,0,1,93.59-985.59Z" transform="translate(298.5 1064.44)"/><path class="cls-4" d="M10-755.94-73.59-985.59A243.74,243.74,0,0,1,10-1000.27Z" transform="translate(298.5 1064.44)"/><path class="cls-3" d="M206.37-990l-.28.34-39,46.52a244,244,0,0,0-73.47-42.48l20.75-57,.17-.49A305.08,305.08,0,0,1,206.37-990Z" transform="translate(298.5 1064.44)"/><path class="cls-3" d="M-147.06-568.77l-39,46.52-.28.34a306.63,306.63,0,0,1-68.24-81.26l.42-.24,52.56-30.35A245.32,245.32,0,0,0-147.06-568.77Z" transform="translate(298.5 1064.44)"/><path class="cls-3" d="M206.09-522.25l.28.34a305.08,305.08,0,0,1-91.86,53.12l-.17-.49-20.75-57a244,244,0,0,0,73.47-42.48Z" transform="translate(298.5 1064.44)"/><path class="cls-2" d="M114.51-1043.09l-.17.49-20.75,57A243.74,243.74,0,0,0,10-1000.27v-61.17A304.88,304.88,0,0,1,114.51-1043.09Z" transform="translate(298.5 1064.44)"/><path class="cls-2" d="M-201.63-633.76l-52.56,30.35-.42.24a303.36,303.36,0,0,1-36.3-99.72l.49-.08,59.77-10.54A242.43,242.43,0,0,0-201.63-633.76Z" transform="translate(298.5 1064.44)"/><path class="cls-3" d="M310.42-703l.49.08a303.36,303.36,0,0,1-36.3,99.72l-.42-.24-52.56-30.35a242.43,242.43,0,0,0,29-79.75Z" transform="translate(298.5 1064.44)"/><path class="cls-1" d="M167.06-568.77,10-755.94,221.63-633.76A245.32,245.32,0,0,1,167.06-568.77Z" transform="translate(298.5 1064.44)"/><path class="cls-4" d="M167.06-943.11,10-755.94,93.59-985.59A244,244,0,0,1,167.06-943.11Z" transform="translate(298.5 1064.44)"/><path class="cls-3" d="M-290.42-808.91l59.77,10.54a245.17,245.17,0,0,0-3.68,42.43,245.17,245.17,0,0,0,3.68,42.43L-290.42-703l-.49.08a307.13,307.13,0,0,1-4.59-53,307.13,307.13,0,0,1,4.59-53Z" transform="translate(298.5 1064.44)"/><path class="cls-3" d="M10-450.88v.44A304.88,304.88,0,0,1-94.51-468.79l.17-.49,20.75-57A243.74,243.74,0,0,0,10-511.61Z" transform="translate(298.5 1064.44)"/><path class="cls-3" d="M310.91-809l-.49.08-59.77,10.54a242.43,242.43,0,0,0-29-79.75l52.56-30.35.42-.24A303.36,303.36,0,0,1,310.91-809Z" transform="translate(298.5 1064.44)"/><path class="cls-1" d="M10-755.94-201.63-633.76a242.43,242.43,0,0,1-29-79.75Z" transform="translate(298.5 1064.44)"/><path class="cls-1" d="M10-511.61V-755.94L93.59-526.29A243.74,243.74,0,0,1,10-511.61Z" transform="translate(298.5 1064.44)"/><path class="cls-4" d="M10-755.94l240.65,42.43a242.43,242.43,0,0,1-29,79.75Z" transform="translate(298.5 1064.44)"/><path class="cls-2" d="M-73.59-526.29l-20.75,57-.17.49a305.08,305.08,0,0,1-91.86-53.12l.28-.34,39-46.52A244,244,0,0,0-73.59-526.29Z" transform="translate(298.5 1064.44)"/><path class="cls-2" d="M114.34-469.28l.17.49A304.88,304.88,0,0,1,10-450.44v-61.17a243.74,243.74,0,0,0,83.59-14.68Z" transform="translate(298.5 1064.44)"/><path class="cls-4" d="M10-755.94,221.63-878.12a242.43,242.43,0,0,1,29,79.75Z" transform="translate(298.5 1064.44)"/><path class="cls-4" d="M-230.65-798.37,10-755.94l-240.65,42.43a245.17,245.17,0,0,1-3.68-42.43A245.17,245.17,0,0,1-230.65-798.37Z" transform="translate(298.5 1064.44)"/><path class="cls-2" d="M-94.34-1042.6l20.75,57a244,244,0,0,0-73.47,42.48l-39-46.52-.28-.34a305.08,305.08,0,0,1,91.86-53.12Z" transform="translate(298.5 1064.44)"/><path class="cls-4" d="M10-755.94-147.06-568.77a245.32,245.32,0,0,1-54.57-65Z" transform="translate(298.5 1064.44)"/><path class="cls-1" d="M10-755.94-73.59-526.29a244,244,0,0,1-73.47-42.48Z" transform="translate(298.5 1064.44)"/><path class="cls-4" d="M10-755.94,167.06-568.77a244,244,0,0,1-73.47,42.48Z" transform="translate(298.5 1064.44)"/><path class="cls-2" d="M274.61-908.71l-.42.24-52.56,30.35a245.32,245.32,0,0,0-54.57-65l39-46.52.28-.34A306.63,306.63,0,0,1,274.61-908.71Z" transform="translate(298.5 1064.44)"/><path class="cls-1" d="M10-755.94-147.06-943.11a244,244,0,0,1,73.47-42.48Z" transform="translate(298.5 1064.44)"/><path class="cls-2" d="M310.91-809a307.13,307.13,0,0,1,4.59,53,307.13,307.13,0,0,1-4.59,53l-.49-.08-59.77-10.54a245.17,245.17,0,0,0,3.68-42.43,245.17,245.17,0,0,0-3.68-42.43l59.77-10.54Z" transform="translate(298.5 1064.44)"/><path class="cls-4" d="M-147.06-943.11,10-755.94-201.63-878.12A245.32,245.32,0,0,1-147.06-943.11Z" transform="translate(298.5 1064.44)"/><path class="cls-5" d="M310.91-809a307.13,307.13,0,0,1,4.59,53,307.13,307.13,0,0,1-4.59,53,303.36,303.36,0,0,1-36.3,99.72,306.63,306.63,0,0,1-68.24,81.26,305.08,305.08,0,0,1-91.86,53.12A304.88,304.88,0,0,1,10-450.44,304.88,304.88,0,0,1-94.51-468.79a305.08,305.08,0,0,1-91.86-53.12,306.63,306.63,0,0,1-68.24-81.26,303.36,303.36,0,0,1-36.3-99.72,307.13,307.13,0,0,1-4.59-53,307.13,307.13,0,0,1,4.59-53,303.36,303.36,0,0,1,36.3-99.72A306.63,306.63,0,0,1-186.37-990a305.08,305.08,0,0,1,91.86-53.12A304.88,304.88,0,0,1,10-1061.44a304.88,304.88,0,0,1,104.51,18.35A305.08,305.08,0,0,1,206.37-990a306.63,306.63,0,0,1,68.24,81.26A303.36,303.36,0,0,1,310.91-809Z" transform="translate(298.5 1064.44)"/><polyline class="cls-6" points="308.5 3.44 308.5 64.17 308.5 308.5 308.5 552.83 308.5 613.56"/><polyline class="cls-6" points="204.16 21.84 224.91 78.85 308.5 308.5 392.09 538.15 412.84 595.16"/><polyline class="cls-6" points="112.41 74.81 151.44 121.33 308.5 308.5 465.56 495.67 504.59 542.19"/><polyline class="cls-6" points="44.31 155.97 96.87 186.32 308.5 308.5 520.13 430.68 572.69 461.03"/><polyline class="cls-6" points="8.08 255.53 67.85 266.07 308.5 308.5 549.15 350.93 608.92 361.47"/><polyline class="cls-6" points="8.08 361.47 67.85 350.93 308.5 308.5 549.15 266.07 608.92 255.53"/><polyline class="cls-6" points="44.31 461.03 96.87 430.68 308.5 308.5 520.13 186.32 572.69 155.97"/><polyline class="cls-6" points="112.41 542.19 151.44 495.67 308.5 308.5 465.56 121.33 504.59 74.81"/><polyline class="cls-6" points="204.16 595.16 224.91 538.15 308.5 308.5 392.09 78.85 412.84 21.84"/><path class="cls-5" d="M250.65-798.37a245.17,245.17,0,0,1,3.68,42.43,245.17,245.17,0,0,1-3.68,42.43,242.43,242.43,0,0,1-29,79.75,245.32,245.32,0,0,1-54.57,65,244,244,0,0,1-73.47,42.48A243.74,243.74,0,0,1,10-511.61a243.74,243.74,0,0,1-83.59-14.68,244,244,0,0,1-73.47-42.48,245.32,245.32,0,0,1-54.57-65,242.43,242.43,0,0,1-29-79.75,245.17,245.17,0,0,1-3.68-42.43,245.17,245.17,0,0,1,3.68-42.43,242.43,242.43,0,0,1,29-79.75,245.32,245.32,0,0,1,54.57-65,244,244,0,0,1,73.47-42.48A243.74,243.74,0,0,1,10-1000.27a243.74,243.74,0,0,1,83.59,14.68,244,244,0,0,1,73.47,42.48,245.32,245.32,0,0,1,54.57,65A242.43,242.43,0,0,1,250.65-798.37Z" transform="translate(298.5 1064.44)"/></svg>