<svg id="Layer_1" width="30px" data-name="Layer 1" xmlns="http://www.w3.org/2000/svg" viewBox="0 0 23.71 25"><defs><style>.wheel-fortune__table-bg-number-color{fill:#7adde9;}</style></defs><title>Vector Smart Object2</title><path class="wheel-fortune__table-bg-number-color" d="M-377.16,1631.37h-6.71l3.6-1.44a.56.56,0,0,0,.31-.73.56.56,0,0,0-.73-.31l-3.91,1.56a13.18,13.18,0,0,0,2.82-2.19,2.61,2.61,0,0,0-.49-3.66,2.61,2.61,0,0,0-3.66.49,22.68,22.68,0,0,0-2,4.84,22.69,22.69,0,0,0-2-4.84,2.61,2.61,0,0,0-3.66-.49,2.61,2.61,0,0,0-.49,3.66,13.18,13.18,0,0,0,2.82,2.19l-3.91-1.56a.56.56,0,0,0-.73.31.56.56,0,0,0,.31.73l3.6,1.44h-6.8a1,1,0,0,0-1,1v15.67a1,1,0,0,0,1,1h21.68a1,1,0,0,0,1-1v-15.67A1,1,0,0,0-377.16,1631.37Zm-7.88-5.6a1.49,1.49,0,0,1,2.09-.28,1.49,1.49,0,0,1,.28,2.09,13,13,0,0,1-3.06,2.26l-1.26.76A24.54,24.54,0,0,1-385,1625.77Zm-8.2,1.81a1.49,1.49,0,0,1,.28-2.09,1.48,1.48,0,0,1,.9-.3,1.49,1.49,0,0,1,1.19.59,24.54,24.54,0,0,1,2,4.83l-1.26-.76A13,13,0,0,1-393.24,1627.58Z" transform="translate(399.86 -1624.06)"/></svg>