<svg id="Layer_1" data-name="Layer 1" xmlns="http://www.w3.org/2000/svg" viewBox="0 0 18 11.2"><title>eye1</title><path d="M19,10a10.39,10.39,0,0,1-3.7,4.1A9.88,9.88,0,0,1,10,15.6a9.88,9.88,0,0,1-5.3-1.5A10.39,10.39,0,0,1,1,10,10.39,10.39,0,0,1,4.7,5.9,9.88,9.88,0,0,1,10,4.4a9.88,9.88,0,0,1,5.3,1.5A10.39,10.39,0,0,1,19,10ZM14.2,7.2a4,4,0,0,1,.3,1.5,4.38,4.38,0,0,1-1.3,3.2A4.22,4.22,0,0,1,10,13.2a4.38,4.38,0,0,1-3.2-1.3A4,4,0,0,1,5.5,8.8a3.65,3.65,0,0,1,.3-1.5.35.35,0,0,0-.2.1A7.46,7.46,0,0,0,2.9,10a8.07,8.07,0,0,0,2.6,2.6,7.8,7.8,0,0,0,4.4,1.3,7.58,7.58,0,0,0,4.4-1.3A8.07,8.07,0,0,0,16.9,10a8.07,8.07,0,0,0-2.6-2.6c.1-.1,0-.1-.1-.2ZM8.3,6.5A1.7,1.7,0,0,0,7.1,9.4,1.7,1.7,0,1,0,9.5,7,1.66,1.66,0,0,0,8.3,6.5Z" transform="translate(-1 -4.4)"/></svg>