<svg id="Layer_1" data-name="Layer 1" xmlns="http://www.w3.org/2000/svg" viewBox="0 0 18 16.9"><title>eye2</title><path d="M14.5,8A7.77,7.77,0,0,1,17,10.6a8.07,8.07,0,0,1-2.6,2.6A7.8,7.8,0,0,1,10,14.5a11,11,0,0,1-1.8-.2L6.8,15.7a8.59,8.59,0,0,0,3.2.5,9.88,9.88,0,0,0,5.3-1.5A10.47,10.47,0,0,0,19,10.6a11.81,11.81,0,0,0-3.2-3.8Zm-1.3,4.5a4.22,4.22,0,0,0,1.3-3.2,4.87,4.87,0,0,0-.1-1.2L8.9,13.6a4.87,4.87,0,0,0,1.2.1A3.85,3.85,0,0,0,13.2,12.5Zm4.7-10L1.9,18.4H1v-.9l3.2-3.2A9.89,9.89,0,0,1,1,10.5,10.39,10.39,0,0,1,4.7,6.4,9.88,9.88,0,0,1,10,4.9a10.59,10.59,0,0,1,3.1.5L17,1.5h.9ZM7.1,7.6a1.66,1.66,0,0,0-.5,1.2A1.5,1.5,0,0,0,7,9.9a1.39,1.39,0,0,0,1,.5l2-1.9a1.23,1.23,0,0,0-.5-1,1.92,1.92,0,0,0-1.2-.4A1.35,1.35,0,0,0,7.1,7.6ZM5.4,13.1l1-1a4.39,4.39,0,0,1-.9-2.7,3.65,3.65,0,0,1,.3-1.5.35.35,0,0,0-.2.1A8.07,8.07,0,0,0,3,10.6a8.16,8.16,0,0,0,2.4,2.5Z" transform="translate(-1 -1.5)"/></svg>