<svg id="Layer_1" data-name="Layer 1" xmlns="http://www.w3.org/2000/svg" viewBox="0 0 36.5 30.9"><defs><style>.cls-1{fill:#ed1c24;stroke:#fff;stroke-miterlimit:10;stroke-width:2px;}</style></defs><title>hearth3</title><path d="M647,386.5a7.09,7.09,0,0,1,5.3,2.4,8,8,0,0,1,2.2,5.7,14.79,14.79,0,0,1-1.6,6.5,20.6,20.6,0,0,1-3.8,5.5,53.45,53.45,0,0,1-4.6,4.2,31.54,31.54,0,0,1-3.9,2.8l-1.1.6c-.1-.1-.2-.1-.3-.2-.3-.2-.6-.3-.9-.5-.6-.4-2-1.4-3.7-2.7a42.39,42.39,0,0,1-4.8-4.3,21.2,21.2,0,0,1-3.6-5.4,14.48,14.48,0,0,1-1.6-6.5,7.84,7.84,0,0,1,2.2-5.7,6.59,6.59,0,0,1,5.2-2.4,7.13,7.13,0,0,1,3.9,1.1,6.74,6.74,0,0,1,2.7,3.1l.9,1.9.9-1.9a7.36,7.36,0,0,1,2.7-3.1,7.94,7.94,0,0,1,3.9-1.1m0-1a7.8,7.8,0,0,0-4.4,1.3,8.08,8.08,0,0,0-3.1,3.5,8.08,8.08,0,0,0-3.1-3.5,7.91,7.91,0,0,0-10.3,1.4,8.91,8.91,0,0,0-2.5,6.4,16,16,0,0,0,1.7,6.9,22.63,22.63,0,0,0,3.8,5.7,42.34,42.34,0,0,0,4.9,4.4,46,46,0,0,0,3.8,2.8c.7.4,1.3.8,1.7,1l1.6-.9a41.8,41.8,0,0,0,4-2.9,61.13,61.13,0,0,0,4.7-4.3,20.59,20.59,0,0,0,4-5.8,16,16,0,0,0,1.7-6.9,8.91,8.91,0,0,0-2.5-6.4,8,8,0,0,0-6-2.7Z" transform="translate(-623.6 -384.5)"/><circle class="cls-1" cx="30.6" cy="5.9" r="4.9"/></svg>