<svg id="Layer_1" data-name="Layer 1" xmlns="http://www.w3.org/2000/svg" viewBox="0 0 31.9 29.9"><defs><style>.cls-1{fill:#ed1c24;}</style></defs><title>hearth2</title><path class="cls-1" d="M632,385.5a7.58,7.58,0,0,1,4.4,1.3,8.08,8.08,0,0,1,3.1,3.5,8.08,8.08,0,0,1,3.1-3.5,7.8,7.8,0,0,1,4.4-1.3,8,8,0,0,1,6,2.7,8.91,8.91,0,0,1,2.5,6.4,16,16,0,0,1-1.7,6.9,20.58,20.58,0,0,1-4,5.8,61.1,61.1,0,0,1-4.7,4.3,41.79,41.79,0,0,1-4,2.9l-1.6.9c-.4-.2-1-.6-1.7-1a46,46,0,0,1-3.8-2.8,42.35,42.35,0,0,1-4.9-4.4,22.62,22.62,0,0,1-3.8-5.7,16,16,0,0,1-1.7-6.9,8.91,8.91,0,0,1,2.5-6.4A7.64,7.64,0,0,1,632,385.5Z" transform="translate(-623.6 -385.5)"/></svg>