<svg id="Layer_1" data-name="Layer 1" xmlns="http://www.w3.org/2000/svg" viewBox="0 0 29.99 33.6"><title>ico-pay</title><path d="M64.4,37.7a.55.55,0,0,0-.6-.4,21,21,0,0,1-5.1-.1c-2.5-.3-6.1-1.2-8.3-3.8a.76.76,0,0,0-.4-.2h0a.76.76,0,0,0-.4.2c-2.3,2.6-5.8,3.5-8.3,3.8a21,21,0,0,1-5.1.1.55.55,0,0,0-.6.4c-.8,2.8-1,8.3.6,13.7a24.74,24.74,0,0,0,4.5,8.5,25.79,25.79,0,0,0,9,6.9h.4a23.86,23.86,0,0,0,9-6.9,24.74,24.74,0,0,0,4.5-8.5A25.59,25.59,0,0,0,64.4,37.7ZM62.7,51A23,23,0,0,1,50,65.5a23.49,23.49,0,0,1-8.4-6.4A25.16,25.16,0,0,1,37.3,51a25.93,25.93,0,0,1-.8-12.6,20.64,20.64,0,0,0,4.9-.1c3.7-.5,6.6-1.7,8.6-3.7a14.23,14.23,0,0,0,8.6,3.7,20.66,20.66,0,0,0,4.9.1c1,4,.1,9.7-.8,12.6ZM62,39.7h-.3c-2.6,0-7.6-.4-11.3-3.2a.85.85,0,0,0-.7,0C46,39.3,41,39.7,38.4,39.7h-.3a.47.47,0,0,0-.5.5,25.64,25.64,0,0,0,1,10.5A22,22,0,0,0,49.9,64.2a.35.35,0,0,1,.2.1c.1,0,.2,0,.2-.1A21.78,21.78,0,0,0,61.6,50.7a25.56,25.56,0,0,0,1-10.5.63.63,0,0,0-.6-.5ZM60.5,50.3A20.82,20.82,0,0,1,50,63,20.82,20.82,0,0,1,39.5,50.3a24.27,24.27,0,0,1-1-9.5,24.06,24.06,0,0,0,5.5-.6,15.63,15.63,0,0,0,6-2.6,16.33,16.33,0,0,0,6,2.6,24.06,24.06,0,0,0,5.5.6,24,24,0,0,1-1,9.5Zm-15.4-.5h1.5V44.4h4.3a7.63,7.63,0,0,1,1.7.1,3.15,3.15,0,0,1,2.7,3.2,3.66,3.66,0,0,1-.9,2.5c-.6.7-1.7,1-3.3,1H48.2v1.5h6.5V54H48.2v2.3H46.7V54H45.2V52.7h1.5V51.2H45.2V49.8Zm3-.1H51c2,0,2.7-.8,2.7-2.1a1.79,1.79,0,0,0-1.3-1.9,4.55,4.55,0,0,0-1.4-.1H48.1Z" transform="translate(-34.99 -33.2)"/></svg>