<svg id="Layer_1" data-name="Layer 1" xmlns="http://www.w3.org/2000/svg" viewBox="0 0 32 33.1"><title>ico-choice</title><path d="M32,9.5a1.32,1.32,0,0,0-1.3-1.3H21V5.4A5.12,5.12,0,0,0,16.15,0H15.9a5.38,5.38,0,0,0-5.4,5.36s0,0,0,0V8.2H1.3A1.32,1.32,0,0,0,0,9.5V31.7a1.28,1.28,0,0,0,.4,1,1.22,1.22,0,0,0,.9.4H30.7a1,1,0,0,0,.9-.4,1.28,1.28,0,0,0,.4-1ZM20.45,12.3a.85.85,0,1,1-.85.85h0a.83.83,0,0,1,.81-.85ZM11.6,5.6a4.12,4.12,0,0,1,4.1-4.1,4.06,4.06,0,0,1,4.1,4s0,.05,0,.08V8.2H11.6Zm-.68,6.57A.88.88,0,1,1,10,13a.86.86,0,0,1,.84-.88ZM1.1,31.8V9.6h9.2v1.5a2,2,0,1,0,1.2,0V9.6h8.3v1.6a2,2,0,1,0,1.2,0V9.7h9.59l0,22.1Z" transform="translate(0 0)"/><path d="M18.5,17.1a3.42,3.42,0,0,0-2.7,1.2,3.57,3.57,0,0,0-2.7-1.2,3.76,3.76,0,0,0-3.7,3.7,3.42,3.42,0,0,0,1.2,2.7l4,4c.5.5.9.8,1.2.8s.7-.3,1.2-.8l4-4a3.42,3.42,0,0,0,1.2-2.7A3.76,3.76,0,0,0,18.5,17.1Zm1.4,5.3-4.1,4-.1.1-.1-.1-4.1-4.1a1.86,1.86,0,0,1-.7-1.6,2,2,0,0,1,2-2.1h.1a2.13,2.13,0,0,1,1.6.7l1.2,1.3,1.2-1.3a1.86,1.86,0,0,1,1.6-.7,2,2,0,0,1,2.1,2s0,.07,0,.1A2.06,2.06,0,0,1,19.9,22.4Z" transform="translate(0 0)"/></svg>