<svg id="Layer_1" data-name="Layer 1" xmlns="http://www.w3.org/2000/svg" viewBox="0 0 33.9 34.2"><title>ico-refund</title><path d="M50,38.3A11.7,11.7,0,1,0,61.7,50,11.71,11.71,0,0,0,50,38.3Zm0,22.3A10.6,10.6,0,1,1,60.6,50,10.61,10.61,0,0,1,50,60.6ZM62,38a17,17,0,0,0-24.7.7l.3-2.1a.55.55,0,1,0-1.1-.1l-.6,4.1c0,.2,0,.4.2.5s.2.1.4.1h.2L40.2,40a.54.54,0,0,0-.4-1l-1.8.6A15.85,15.85,0,1,1,49.9,66a.6.6,0,1,0,0,1.2,17.07,17.07,0,0,0,17-17A17.33,17.33,0,0,0,62,38ZM47.7,65.7c-.2,0-.4-.1-.6-.1a.51.51,0,1,0-.2,1c.2,0,.4.1.6.1h.1a.47.47,0,0,0,.5-.5C48.2,66.1,48,65.8,47.7,65.7ZM45,65.1a4.18,4.18,0,0,1-1-.4.54.54,0,0,0-.4,1c.4.1.7.3,1.1.4h.2a.51.51,0,0,0,.5-.4C45.5,65.5,45.3,65.2,45,65.1ZM34.5,53.4c-.1-.4-.1-.7-.2-1.1a.55.55,0,0,0-1.1.1c.1.4.1.8.2,1.2a.51.51,0,0,0,.5.4H34A.56.56,0,0,0,34.5,53.4Zm-.2-8.3a.57.57,0,0,0-.7.4c-.1.4-.2.8-.3,1.1a.44.44,0,0,0,.4.6h.1a.46.46,0,0,0,.5-.4c.1-.4.2-.7.3-1.1A.45.45,0,0,0,34.3,45.1Zm1.2,11.4a4.18,4.18,0,0,1-.4-1,.54.54,0,1,0-1,.4c.1.4.3.7.4,1.1a.55.55,0,0,0,.5.3h.2A.67.67,0,0,0,35.5,56.5Zm-1.9-8.1a.56.56,0,0,0-.6.5V50c0,.3.2.5.6.5h0a.56.56,0,0,0,.5-.6V48.8C34.1,48.7,33.9,48.5,33.6,48.4ZM42,63.8l-.9-.6a.57.57,0,0,0-.7.9c.3.2.7.4,1,.6a.37.37,0,0,0,.3.1.55.55,0,0,0,.5-.3A.43.43,0,0,0,42,63.8Zm-4.8-4.4-.6-.9a.58.58,0,0,0-1,.6,6.07,6.07,0,0,0,.7,1,.76.76,0,0,0,.4.2.37.37,0,0,0,.3-.1A.65.65,0,0,0,37.2,59.4Zm2.2,2.4a6,6,0,0,1-.8-.8.57.57,0,0,0-.8.8l.8.8c.1.1.2.1.4.1a.52.52,0,0,0,.4-.2C39.6,62.4,39.6,62,39.4,61.8Zm-4-19.3a.52.52,0,0,0-.7.3l-.3.6a.52.52,0,0,0,.3.7h.2a.55.55,0,0,0,.5-.3c.1-.2.2-.3.2-.5A.57.57,0,0,0,35.4,42.5ZM54.5,53.2H45A.6.6,0,0,1,45,52h9.5a.65.65,0,0,1,.6.6A.58.58,0,0,1,54.5,53.2ZM46.6,57a.65.65,0,0,1-.6-.6V50.5H45a.6.6,0,0,1,0-1.2h1V43.4a.65.65,0,0,1,.6-.6h4.9a4.39,4.39,0,0,1,1.9.5,3.72,3.72,0,0,1,0,6.6,4.7,4.7,0,0,1-1.9.5H47.2v5.9C47.2,56.8,46.9,57,46.6,57Zm.6-7.6h4.3c.2,0,2.9-.2,2.9-2.7A2.29,2.29,0,0,0,53,44.4a6.39,6.39,0,0,0-1.5-.4H47.2Z" transform="translate(-33 -33)"/></svg>