<svg id="Layer_1" data-name="Layer 1" xmlns="http://www.w3.org/2000/svg" viewBox="0 0 26.1 34.3"><title>ico-original</title><path d="M62.8,46.8a1.65,1.65,0,0,0,0-1.9l-.7-1.2a.9.9,0,0,1-.1-.5l.2-1.4a2,2,0,0,0-.7-1.8l-1.1-.8c-.1-.1-.3-.3-.3-.4l-.3-1.3a2,2,0,0,0-1.4-1.4L57,35.8c-.2,0-.3-.1-.4-.3l-.8-1.1a1.78,1.78,0,0,0-1.8-.7l-1.4.2a.75.75,0,0,1-.5-.1L51,33.1a1.65,1.65,0,0,0-1.9,0l-1.2.7a.9.9,0,0,1-.5.1L46,33.7a2,2,0,0,0-1.8.7l-.8,1.1c-.1.1-.3.3-.4.3l-1.3.3a2,2,0,0,0-1.4,1.4L40,38.8c0,.2-.1.3-.3.4l-1.1.8a1.78,1.78,0,0,0-.7,1.8l.2,1.4a.75.75,0,0,1-.1.5l-.7,1.2a1.65,1.65,0,0,0,0,1.9L38,48a.9.9,0,0,1,.1.5l-.2,1.4a2,2,0,0,0,.7,1.8l1.1.8c.1.1.3.3.3.4l.3,1.3a2,2,0,0,0,1.4,1.4l.6.1-3.8,8.4c-.1.2-.1.4.1.5s.3.2.5.2l3-.4,1.7,2.5a.76.76,0,0,0,.4.2h.1c.2,0,.4-.1.4-.3l3.8-8.6.5.3a1.82,1.82,0,0,0,2,0l.5-.3,3.8,8.6c.1.2.2.3.4.3h.1a.52.52,0,0,0,.4-.2l1.7-2.5,3,.4a.76.76,0,0,0,.5-.2,1.09,1.09,0,0,0,.1-.5l-3.8-8.4.5-.1a2,2,0,0,0,1.4-1.4l.3-1.3c0-.2.1-.3.3-.4l1.1-.8a1.78,1.78,0,0,0,.7-1.8V48.5a.75.75,0,0,1,.1-.5ZM44.1,65.6l-1.4-2a.37.37,0,0,0-.5-.2l-2.4.3,3.4-7.6c.1,0,.1.1.2.2l.8,1.1.3.3-1.8,4a.52.52,0,0,0,.3.7h.2a.55.55,0,0,0,.5-.3l1.8-4H46l1.4-.2h.2Zm16.1-2-2.4-.3a.76.76,0,0,0-.5.2l-1.4,2-3.5-7.8h.2L54,58h.6l1.8,4a.55.55,0,0,0,.5.3h.2a.52.52,0,0,0,.3-.7l-1.8-4c.1-.1.2-.2.2-.3l.8-1.1.2-.2Zm1.6-17.4-.7,1.2a1.72,1.72,0,0,0-.2,1.2l.2,1.4a.78.78,0,0,1-.3.7l-1.1.8a1.64,1.64,0,0,0-.7,1.1l-.3,1.3a.9.9,0,0,1-.6.6l-1.3.3a2.59,2.59,0,0,0-1.1.7l-.8,1.1a1.08,1.08,0,0,1-.7.3l-1.4-.2a1.64,1.64,0,0,0-1.2.2l-1.2.7a1.1,1.1,0,0,1-.8,0L48.4,57a1.69,1.69,0,0,0-1-.3h-.3l-1.4.2a.78.78,0,0,1-.7-.3l-.8-1.1a1.64,1.64,0,0,0-1.1-.7l-1.3-.3a.9.9,0,0,1-.6-.6L41,52.6a2.59,2.59,0,0,0-.7-1.1l-1.1-.8a1.08,1.08,0,0,1-.3-.7l.2-1.4a1.64,1.64,0,0,0-.2-1.2l-.7-1.2a1.1,1.1,0,0,1,0-.8l.7-1.2a1.72,1.72,0,0,0,.2-1.2l-.2-1.4a.78.78,0,0,1,.3-.7l1.1-.8A1.64,1.64,0,0,0,41,39l.3-1.3a.9.9,0,0,1,.6-.6l1.3-.3a2.59,2.59,0,0,0,1.1-.7l.8-1.1a1.08,1.08,0,0,1,.7-.3l1.4.2a1.64,1.64,0,0,0,1.2-.2l1.2-.7a1.1,1.1,0,0,1,.8,0l1.2.7a1.72,1.72,0,0,0,1.2.2l1.4-.2a.78.78,0,0,1,.7.3l.8,1.1a1.64,1.64,0,0,0,1.1.7l1.3.3a.9.9,0,0,1,.6.6L59,39a2.59,2.59,0,0,0,.7,1.1l1.1.8a1.08,1.08,0,0,1,.3.7L60.9,43a1.64,1.64,0,0,0,.2,1.2l.7,1.2A.6.6,0,0,1,61.8,46.2Zm-5.5-2a1,1,0,0,0-.8-.7l-3.3-.4-1.4-3a1,1,0,0,0-1.8,0l-1.4,3-3.3.4a.85.85,0,0,0-.8.7.91.91,0,0,0,.3,1l2.4,2.2-.6,3.2a1,1,0,0,0,.4,1,1.42,1.42,0,0,0,.6.2.9.9,0,0,0,.5-.1L50,50.1l2.9,1.6a.92.92,0,0,0,1.1-.1,1,1,0,0,0,.4-1l-.6-3.2,2.4-2.2A.92.92,0,0,0,56.3,44.2Zm-3.6,2.6a.76.76,0,0,0-.2.5l.7,3.3L50.3,49c-.1,0-.2-.1-.3-.1a.37.37,0,0,0-.3.1l-2.9,1.6.7-3.3c0-.2,0-.4-.2-.5l-2.5-2.3,3.3-.4c.2,0,.3-.1.4-.3l1.4-3.1,1.4,3.1c.1.2.2.3.4.3l3.3.4ZM50,55.7a9.9,9.9,0,1,1,9.9-9.9A9.92,9.92,0,0,1,50,55.7Zm0-18.6a8.7,8.7,0,1,0,8.7,8.7A8.71,8.71,0,0,0,50,37.1Z" transform="translate(-37 -32.8)"/></svg>