<svg id="Layer_1" data-name="Layer 1" xmlns="http://www.w3.org/2000/svg" viewBox="0 0 34 34.12"><title>ico-wallet</title><path d="M41.3,44.3h1.2a.6.6,0,0,0,0-1.2H41.3a.65.65,0,0,0-.6.6C40.8,44,41,44.3,41.3,44.3Z" transform="translate(-33 -32.98)"/><path d="M38.9,43.2H37.7a.6.6,0,0,0,0,1.2h1.2a.65.65,0,0,0,.6-.6A.58.58,0,0,0,38.9,43.2Z" transform="translate(-33 -32.98)"/><path d="M44.9,44.3h1.2a.6.6,0,0,0,0-1.2H44.9a.65.65,0,0,0-.6.6C44.4,44,44.6,44.3,44.9,44.3Z" transform="translate(-33 -32.98)"/><path d="M38.9,63.5H37.7a.6.6,0,0,0,0,1.2h1.2a.6.6,0,0,0,0-1.2Z" transform="translate(-33 -32.98)"/><path d="M62.9,45.5a.65.65,0,0,0,.6-.6V43.7a.6.6,0,0,0-1.2,0v1.2A.58.58,0,0,0,62.9,45.5Z" transform="translate(-33 -32.98)"/><path d="M59.3,44.3h1.2a.6.6,0,0,0,0-1.2H59.3a.6.6,0,1,0,0,1.2Z" transform="translate(-33 -32.98)"/><path d="M62.9,49.1a.65.65,0,0,0,.6-.6V47.3a.6.6,0,1,0-1.2,0v1.2A.58.58,0,0,0,62.9,49.1Z" transform="translate(-33 -32.98)"/><path d="M48.5,44.3h1.2a.6.6,0,1,0,0-1.2H48.5a.6.6,0,0,0,0,1.2Z" transform="translate(-33 -32.98)"/><path d="M42.5,63.5H41.3a.6.6,0,1,0,0,1.2h1.2a.6.6,0,0,0,0-1.2Z" transform="translate(-33 -32.98)"/><path d="M52.1,44.3h1.2a.6.6,0,0,0,0-1.2H52.1a.6.6,0,0,0,0,1.2Z" transform="translate(-33 -32.98)"/><path d="M62.9,64.6a.65.65,0,0,0,.6-.6V62.8a.6.6,0,1,0-1.2,0V64A.53.53,0,0,0,62.9,64.6Z" transform="translate(-33 -32.98)"/><path d="M60.5,63.5H59.3a.6.6,0,1,0,0,1.2h1.2a.6.6,0,0,0,0-1.2Z" transform="translate(-33 -32.98)"/><path d="M62.9,61a.65.65,0,0,0,.6-.6V59.2a.6.6,0,0,0-1.2,0v1.2A.53.53,0,0,0,62.9,61Z" transform="translate(-33 -32.98)"/><circle cx="28.1" cy="20.92" r="1.2"/><path d="M65.8,50.3h0V42.5A1.79,1.79,0,0,0,64,40.7h-.3L63,37c-.1-.3-.2-.6-.5-.7a1.49,1.49,0,0,0-.9-.2l-2.6.5-1-2.8a1.34,1.34,0,0,0-.6-.7,1,1,0,0,0-.9,0L34.6,40.8A1.76,1.76,0,0,0,33,42.6V65.3a1.79,1.79,0,0,0,1.8,1.8H64a1.79,1.79,0,0,0,1.8-1.8V57.5h0A1.22,1.22,0,0,0,67,56.3V51.5A1.22,1.22,0,0,0,65.8,50.3ZM61.9,37.2h0l.7,3.6H43L57.4,38h.1Zm-5-3.1h0l1,2.7-1.1.2h-.1L39.2,40.3Zm7.8,31.1a.58.58,0,0,1-.6.6H34.8a.58.58,0,0,1-.6-.6v-.6h1.2a.6.6,0,0,0,0-1.2H34.2V44.3h1.2a.6.6,0,0,0,0-1.2H34.2v-.6a.58.58,0,0,1,.6-.6H64a.58.58,0,0,1,.6.6v7.8H61a3.5,3.5,0,0,0,0,7h3.6v7.9Zm1.1-8.9H61a2.4,2.4,0,0,1,0-4.8h4.8v4.8Z" transform="translate(-33 -32.98)"/><path d="M49.9,54.6h0a5,5,0,0,0,2.1-.5,3.66,3.66,0,0,0,2.1-3.5A3.54,3.54,0,0,0,52,47.2a5,5,0,0,0-2-.5H44.9a.65.65,0,0,0-.6.6v6.2H43.2a.6.6,0,1,0,0,1.2h1.1v1.6H43.2a.6.6,0,1,0,0,1.2h1.1v3.4a.6.6,0,1,0,1.2,0V57.5H53a.6.6,0,0,0,0-1.2H45.3V54.7h4.6Zm-4.5-6.8h4.5a3.69,3.69,0,0,1,1.6.4,2.34,2.34,0,0,1,1.4,2.4c0,2.6-2.8,2.8-3,2.8H45.4Z" transform="translate(-33 -32.98)"/><path d="M56.9,43.2H55.7a.6.6,0,0,0,0,1.2h1.2a.65.65,0,0,0,.6-.6Q57.35,43.2,56.9,43.2Z" transform="translate(-33 -32.98)"/><path d="M49.7,63.5H48.5a.6.6,0,0,0,0,1.2h1.2a.6.6,0,1,0,0-1.2Z" transform="translate(-33 -32.98)"/><path d="M53.3,63.5H52.1a.6.6,0,0,0,0,1.2h1.2a.6.6,0,0,0,0-1.2Z" transform="translate(-33 -32.98)"/><path d="M56.9,63.5H55.7a.6.6,0,0,0,0,1.2h1.2a.6.6,0,0,0,0-1.2Z" transform="translate(-33 -32.98)"/><path d="M46.1,63.5H44.9a.6.6,0,0,0,0,1.2h1.2a.6.6,0,1,0,0-1.2Z" transform="translate(-33 -32.98)"/></svg>