<svg id="Layer_1" data-name="Layer 1" xmlns="http://www.w3.org/2000/svg" viewBox="0 0 41.91 33"><title>ico-delivery</title><path d="M68.2,51.7l-1-2.6a.63.63,0,0,0,.5-.6v-.7A2.69,2.69,0,0,0,65,45.1H58.7V43.7a1.32,1.32,0,0,0-1.3-1.3H48.5l5.4-2.2a.63.63,0,0,0-.4-1.2L49,40.8a16.16,16.16,0,0,0,3.2-2.5,3,3,0,0,0-.6-4.2,2.9,2.9,0,0,0-4.1.6,26.77,26.77,0,0,0-2.3,5.5,24.57,24.57,0,0,0-2.3-5.5,2.9,2.9,0,0,0-4.1-.6,3.12,3.12,0,0,0-.6,4.2,13.61,13.61,0,0,0,3.2,2.5L37,39a.63.63,0,1,0-.4,1.2L42,42.4H33a1.32,1.32,0,0,0-1.3,1.3v10a.58.58,0,0,0,.6.6.65.65,0,0,0,.6-.6v-10H57.2v10a.58.58,0,0,0,.6.6.65.65,0,0,0,.6-.6V53h9a2.17,2.17,0,0,1,2,1.4h-2a.65.65,0,0,0-.6.6v1.4a2,2,0,0,0,2,2h.7v2.8H66.3a3.91,3.91,0,0,0-3.8-2.7,4,4,0,0,0-3.8,2.7h-.3V56.4a.58.58,0,0,0-.6-.6.65.65,0,0,0-.6.6v4.8h-13a3.91,3.91,0,0,0-3.8-2.7,4,4,0,0,0-3.8,2.7H33V59.8h2.7a.65.65,0,0,0,.6-.6.58.58,0,0,0-.6-.6H29.6a.65.65,0,0,0-.6.6.58.58,0,0,0,.6.6h2.1v1.4A1.32,1.32,0,0,0,33,62.5h3.4a4,4,0,0,0,8,0H58.7a4,4,0,1,0,8,0h3.6a.65.65,0,0,0,.6-.6V55A3.1,3.1,0,0,0,68.2,51.7ZM42.7,40.1a19.18,19.18,0,0,1-3.5-2.6,1.74,1.74,0,0,1,.3-2.4,1.93,1.93,0,0,1,1-.3,1.46,1.46,0,0,1,1.3.7A25.81,25.81,0,0,1,44,41,14.63,14.63,0,0,0,42.7,40.1Zm3.5.8a25.81,25.81,0,0,1,2.2-5.5,1.71,1.71,0,1,1,2.7,2.1c-.2.3-1,1-3.5,2.6A6.38,6.38,0,0,1,46.2,40.9Zm12.4,5.4H65a1.37,1.37,0,0,1,1.4,1.4H58.7V46.3Zm0,5.3V49h7.2l1,2.6ZM40.4,65.2a2.71,2.71,0,0,1-2.7-2.8,2.78,2.78,0,0,1,2.7-2.8,2.71,2.71,0,0,1,2.7,2.8A2.65,2.65,0,0,1,40.4,65.2Zm22.3,0A2.71,2.71,0,0,1,60,62.4a2.78,2.78,0,0,1,2.7-2.8,2.71,2.71,0,0,1,2.7,2.8A2.65,2.65,0,0,1,62.7,65.2Zm7-8.1H69a.68.68,0,0,1-.7-.7v-.7h1.4Zm-29.3,4a1.3,1.3,0,1,0,1.3,1.3A1.26,1.26,0,0,0,40.4,61.1Zm22.3,0A1.3,1.3,0,1,0,64,62.4,1.32,1.32,0,0,0,62.7,61.1Zm-7.4-1.4a.65.65,0,0,0,.6-.6.58.58,0,0,0-.6-.6H45.9a.65.65,0,0,0-.6.6.58.58,0,0,0,.6.6ZM31,57h8.1a.65.65,0,0,0,.6-.6.58.58,0,0,0-.6-.6H31a.65.65,0,0,0-.6.6A.58.58,0,0,0,31,57Z" transform="translate(-29 -33.5)"/></svg>