<svg class="svg-logo" xmlns="http://www.w3.org/2000/svg" viewBox="0 0 789.1 239.31"><path class="cls-1" d="M54.3,190.7c-4,.4-8.3.6-10.9.6-2.2,0-9.4-.4-18.4-.4H11.6c-2,0-3.2.2-4.8.2-2.2,0-2.8-.2-2.8-.4,0-.6.8-.6,1.8-.9,4.3-1.2,6.5-4.2,6.5-10.5V137c0-5.6-.2-8.5-4.1-9.9-.9-.4-1.6-.5-1.6-1s1.2-.5,2.2-.5H44c9.7,0,26.7,2.7,26.7,14.6,0,11.5-13,14.3-21.9,15.1v.2c11,.2,28.1,4.4,28.1,18.1C76.9,185.6,63.8,189.6,54.3,190.7ZM40.9,128.2H24.2v26.2H36.9c14.4,0,21-5.4,21-13.8C57.9,133.4,52,128.2,40.9,128.2Zm.8,28.7H24.2V176c0,10.1.7,12.3,7.2,12.3H45.7c10.6,0,17.4-4.7,17.4-15.9C63.2,160.2,49.5,156.9,41.7,156.9Zm89,36.1c-20,0-38.6-13.7-38.6-34.7s18.6-34.7,38.6-34.7,38.6,13.7,38.6,34.7S150.7,193,130.7,193Zm0-66.9c-18.6,0-24.9,16.9-24.9,32.1s6.3,32.1,24.9,32.1,24.9-16.9,24.9-32.1S149.2,126.1,130.7,126.1Zm123.2,64.8H240.4l-4.9-13.4c-4.5-12.2-6.2-19.3-19-19.6l-14.9-.4v22.3c0,5,1.3,8.4,5,10,1,.5,1.4.6,1.4.8s-.2.2-1.1.2H184.1c-.5,0-.8,0-.8-.2s.7-.4,1.6-.8c3.9-2,4.8-5,4.8-10V137c0-3.1-.1-8.3-4.1-9.7-1.1-.4-2.1-.5-2.1-1.1,0-.4.4-.6,1.9-.6h38.2c19,0,26.8,5.9,26.8,15,0,14.1-16.7,15.9-27.4,15.9v.2c10.3,1.2,20.1,4.8,23.7,15.5,2.3,6.9,6.1,16,9.3,17.1.9.6,1.7.9,1.7,1.3C257.8,190.8,257.3,190.9,253.9,190.9Zm-33-62.7H201.7V155h18.5c11.1,0,16.7-6.9,16.7-13.8C236.9,133.7,231.7,128.2,220.9,128.2ZM300.5,193c-12,0-18.6-2-29.8-6l3.3-12.1c.5-1.8.6-2.2,1.1-2.2s.6.6.7,1.3c1.4,10.2,14.6,16.5,24,16.5,9.9,0,22.7-2.7,22.7-15,0-11.3-11.3-11.5-19.7-12.7-10.9-1.5-28.7-4-28.7-18.4,0-16.7,16.5-20.8,30.4-20.8a72,72,0,0,1,26.1,4.4l-2.9,9.8c-.5,1.6-.7,2.1-1,2.1s-.3-.2-.5-.6c-2.6-7.1-9.1-13.2-21.6-13.2-8.2,0-19.1,1.8-19.1,12.1,0,12.3,11.7,11.9,27.3,14.1,18.3,2.4,21,10.8,21,17.2C333.8,187.6,315.3,193,300.5,193Zm116.9-16.8-4.5,14.7H350.8c-2.3,0-3.1-.1-3.1-.4s2.1-.9,2.9-1.5c3.8-3,4.5-5.8,4.5-15.1V139.2c0-6.6-.4-11-4.5-12-.7-.3-1.7-.6-1.7-.9s.4-.6,1.9-.6h57.7l2.8,9.6a15.09,15.09,0,0,1,.9,3.8c0,.4-.2.8-.5.8a1.7,1.7,0,0,1-1.2-.9c-4.3-7-15.1-10.7-24.7-10.7H367v27h18.9c7.4,0,14-3.5,15.4-7.7.2-.6.5-.9.8-.9s.4.5.4,1.5V165c0,1.7-.1,2.1-.4,2.1s-.5-.7-.8-1.4c-3-7.6-11.3-8-18.5-8H367v21.5c0,7.4,2.6,9.1,9.5,9.1H388c8.6,0,20-4.8,26.6-11.1a13.22,13.22,0,0,1,2.8-2.1.27.27,0,0,1,.3.3C417.7,175.6,417.5,175.8,417.4,176.2Zm79.2,0-4.2,14.7h-60c-1.7,0-2.2-.2-2.2-.5s.7-.2,2.4-.9c4-1.6,5-5.5,5-14.6V134.6c0-4.2-1.6-7.2-4.4-8.2-.7-.3-1-.5-1-.8s.6-.4,1.5-.4c1.6,0,6.5.4,9.8.4s8.2-.4,9.8-.4c.9,0,1.2.1,1.2.5s-.5.4-.9.6c-3.1,1.3-4.2,4.1-4.2,8.3v42.8c0,10.2,3.9,11,12.6,11h5.4c8.6,0,20.6-4.6,26.8-11.8,1.1-1.3,1.6-2.4,2.1-2.4.3,0,.6.2.6.7C497,175.2,496.7,175.7,496.6,176.2Zm78.9,0-4.2,14.7h-60c-1.7,0-2.2-.2-2.2-.5s.7-.2,2.4-.9c4-1.6,5-5.5,5-14.6V134.6c0-4.2-1.6-7.2-4.4-8.2-.7-.3-1-.5-1-.8s.6-.4,1.5-.4c1.6,0,6.5.4,9.8.4s8.2-.4,9.8-.4c.9,0,1.2.1,1.2.5s-.5.4-.9.6c-3.1,1.3-4.2,4.1-4.2,8.3v42.8c0,10.2,3.9,11,12.6,11h5.4c8.6,0,20.6-4.6,26.8-11.8,1.1-1.3,1.6-2.4,2.1-2.4.3,0,.6.2.6.7C575.9,175.2,575.6,175.7,575.5,176.2Zm36.8,15c-4.3,0-7-.3-11.5-.3s-7.3.3-11.5.3c-.5,0-1.2-.1-1.2-.5,0-.7,1.1-.6,2-1,3.9-2,4.8-5.8,4.8-10.8V134.6c0-4.9-1.4-7.3-4-8-.4-.1-1.1-.3-1.1-.6s.3-.8,1.2-.8c.6,0,6.5.4,9.8.4s8.2-.4,8.8-.4,1.4.1,1.4.8c0,.4-1,.7-1.6,1.1-1.2.8-2.7,2.2-2.7,5.6v47.1c0,5.5,1.6,8.3,5.3,9.9,1,.5,1.7.3,1.7.9C613.7,191,612.8,191.2,612.3,191.2Zm89.3-64.3c-5,2.4-6,9.8-6,16.8v47.9c0,.7-.3,1.5-.7,1.5-.6,0-1.3-.9-2.1-1.8L639,132.6v40.1c0,7,1.1,14.1,7.8,17.1.6.3,1.2.4,1.2.6s-.5.4-2.2.4H628.7c-.6,0-.9-.1-.9-.2s.3-.4.7-.4c6.7-3.3,8.1-10.8,8.1-17.6V144c0-13.2-1.9-15.6-4.9-16.9-1.1-.5-1.8-.8-1.8-1.1s.4-.5,1.5-.5h16.9l44.9,45.8V147c0-9.4-1-17.6-8-20.5-.6-.2-.8-.5-.8-.8s.5-.5,1.3-.5h16.7c.5,0,1,.1,1,.4A4.22,4.22,0,0,1,701.6,126.9ZM754.5,193c-20,0-38.6-13.7-38.6-34.7s18.6-34.7,38.6-34.7,38.6,13.7,38.6,34.7S774.5,193,754.5,193Zm0-66.9c-18.6,0-24.9,16.9-24.9,32.1s6.3,32.1,24.9,32.1,24.9-16.9,24.9-32.1S773,126.1,754.5,126.1ZM175.2,238.2c-.2,0-1.7-.1-3.6-.1-2.6,0-3.7.1-3.8.1s-.3,0-.3-.1.2-.2.4-.3a1.6,1.6,0,0,0,.9-1.7,14.63,14.63,0,0,0-1.4-3.6l-1.8-3.8H158l-1.7,3.3a7.59,7.59,0,0,0-1.1,3.6c0,1.4.9,1.7,1.7,2,.3.1.3.1.3.2s-.2.2-.4.2-1.4-.1-3.1-.1c-1.3,0-2.1.1-2.5.1s-.4-.1-.4-.2.4-.3.6-.5a19.64,19.64,0,0,0,3.7-5l7.8-15.1a1.24,1.24,0,0,1,.2-.3h.1q.15,0,.3.3l9.3,17.5a7.55,7.55,0,0,0,2.1,2.6c.3.3.7.4.7.5C175.7,238.2,175.5,238.2,175.2,238.2Zm-13.5-16.7-3.3,6.6h6.7Zm29.8,17.3c-6.2,0-12-3.5-12-10.8,0-6.5,5.8-10.8,12-10.8a18.49,18.49,0,0,1,9.1,2.4l-1,3c-.1.4-.3,1.1-.4,1.1s-.3-.5-.3-.8c-.7-2.8-2.6-4.8-7.3-4.9-5.8-.1-7.8,5.3-7.8,10s2.2,10,9,10c3.1,0,5.5-1.7,6.9-4.9.2-.4.2-.7.3-.7s.2.1.3.6l.8,2.9C198.4,238.1,194.9,238.8,191.5,238.8Zm27.3,0c-6.2,0-12-3.5-12-10.8,0-6.5,5.8-10.8,12-10.8a18.49,18.49,0,0,1,9.1,2.4l-1,3c-.1.4-.3,1.1-.4,1.1s-.3-.5-.3-.8c-.7-2.8-2.6-4.8-7.3-4.9-5.8-.1-7.8,5.3-7.8,10s2.2,10,9,10c3.1,0,5.5-1.7,6.9-4.9.2-.4.2-.7.3-.7s.2.1.3.6l.8,2.9C225.7,238.1,222.2,238.8,218.8,238.8Zm36.1-5.2-1.4,4.6H234.1c-.7,0-1,0-1-.1s.7-.3.9-.5c1.2-.9,1.4-1.8,1.4-4.7V222c0-2.1-.1-3.4-1.4-3.8-.2-.1-.5-.2-.5-.3s.1-.2.6-.2h18l.9,3a4.22,4.22,0,0,1,.3,1.2c0,.1-.1.3-.2.3a.54.54,0,0,1-.4-.3c-1.3-2.2-4.7-3.3-7.7-3.3h-5.9V227H245c2.3,0,4.4-1.1,4.8-2.4q.15-.3.3-.3c.1,0,.1.2.1.5V230c0,.5,0,.7-.1.7s-.2-.2-.3-.4c-.9-2.4-3.5-2.5-5.8-2.5h-4.9v6.7c0,2.3.8,2.8,3,2.8h3.6a13.41,13.41,0,0,0,8.3-3.5,7.61,7.61,0,0,1,.9-.7c.1,0,.1,0,.1.1A.6.6,0,0,0,254.9,233.6Zm13.9,5.2a22.77,22.77,0,0,1-9.3-1.9l1-3.8c.2-.6.2-.7.3-.7s.2.2.2.4c.4,3.2,4.5,5.2,7.5,5.2s7.1-.8,7.1-4.7c0-3.5-3.5-3.6-6.1-3.9-3.4-.5-8.9-1.2-8.9-5.7,0-5.2,5.2-6.5,9.5-6.5a22.28,22.28,0,0,1,8.1,1.4l-.9,3.1c-.2.5-.2.7-.3.7s-.1-.1-.2-.2c-.8-2.2-2.8-4.1-6.7-4.1-2.5,0-5.9.6-5.9,3.8,0,3.8,3.7,3.7,8.5,4.4,5.7.8,6.5,3.4,6.5,5.4C279.2,237.1,273.4,238.8,268.8,238.8Zm24.9,0a22.77,22.77,0,0,1-9.3-1.9l1-3.8c.2-.6.2-.7.3-.7s.2.2.2.4c.4,3.2,4.5,5.2,7.5,5.2s7.1-.8,7.1-4.7c0-3.5-3.5-3.6-6.1-3.9-3.4-.5-8.9-1.2-8.9-5.7,0-5.2,5.2-6.5,9.5-6.5a22.28,22.28,0,0,1,8.1,1.4l-.9,3.1c-.2.5-.2.7-.3.7s-.1-.1-.2-.2c-.8-2.2-2.8-4.1-6.7-4.1-2.5,0-5.9.6-5.9,3.8,0,3.8,3.7,3.7,8.5,4.4,5.7.8,6.5,3.4,6.5,5.4C304.1,237.1,298.3,238.8,293.7,238.8Zm28.3,0c-6.2,0-12-4.3-12-10.8s5.8-10.8,12-10.8,12,4.3,12,10.8S328.2,238.8,322,238.8Zm0-20.8c-5.8,0-7.8,5.3-7.8,10s2,10,7.8,10,7.8-5.3,7.8-10S327.8,218,322,218Zm39.3,20.2h-4.2l-1.5-4.2c-1.4-3.8-1.9-6-5.9-6.1l-4.6-.1v7c0,1.6.4,2.6,1.6,3.1.3.2.4.2.4.3a.44.44,0,0,1-.3.1h-7.1c-.2,0-.3,0-.3-.1s.2-.1.5-.3c1.2-.6,1.5-1.6,1.5-3.1V221.4c0-1,0-2.6-1.3-3-.3-.1-.7-.2-.7-.3s.1-.2.6-.2h11.9c5.9,0,8.4,1.8,8.4,4.7,0,4.4-5.2,5-8.6,5v.1c3.2.4,6.3,1.5,7.4,4.8.7,2.2,1.9,5,2.9,5.3.3.2.5.3.5.4C362.5,238.1,362.3,238.2,361.3,238.2ZM351,218.6h-6V227h5.8c3.5,0,5.2-2.2,5.2-4.3C355.9,220.3,354.3,218.6,351,218.6Zm23,19.6c-1.3,0-2.2-.1-3.6-.1s-2.3.1-3.6.1c-.2,0-.4,0-.4-.2s.3-.2.6-.3c1.2-.6,1.5-1.8,1.5-3.4V220.5c0-1.5-.4-2.3-1.2-2.5-.1,0-.3-.1-.3-.2s.1-.3.4-.3,2,.1,3.1.1,2.5-.1,2.7-.1.4,0,.4.3c0,.1-.3.2-.5.3a1.85,1.85,0,0,0-.8,1.7v14.7c0,1.7.5,2.6,1.7,3.1.3.2.5.1.5.3S374.2,238.2,374,238.2Zm26.5-4.6-1.4,4.6H379.7c-.7,0-1,0-1-.1s.7-.3.9-.5c1.2-.9,1.4-1.8,1.4-4.7V222c0-2.1-.1-3.4-1.4-3.8-.2-.1-.5-.2-.5-.3s.1-.2.6-.2h18l.9,3a4.22,4.22,0,0,1,.3,1.2c0,.1-.1.3-.2.3a.54.54,0,0,1-.4-.3c-1.3-2.2-4.7-3.3-7.7-3.3h-5.9V227h5.9c2.3,0,4.4-1.1,4.8-2.4q.15-.3.3-.3c.1,0,.1.2.1.5V230c0,.5,0,.7-.1.7s-.2-.2-.3-.4c-.9-2.4-3.5-2.5-5.8-2.5h-4.9v6.7c0,2.3.8,2.8,3,2.8h3.6a13.41,13.41,0,0,0,8.3-3.5,7.61,7.61,0,0,1,.9-.7c.1,0,.1,0,.1.1A.6.6,0,0,0,400.5,233.6Zm13.8,5.2a22.77,22.77,0,0,1-9.3-1.9l1-3.8c.2-.6.2-.7.3-.7s.2.2.2.4c.4,3.2,4.5,5.2,7.5,5.2s7.1-.8,7.1-4.7c0-3.5-3.5-3.6-6.1-3.9-3.4-.5-8.9-1.2-8.9-5.7,0-5.2,5.2-6.5,9.5-6.5a22.28,22.28,0,0,1,8.1,1.4l-.9,3.1c-.2.5-.2.7-.3.7s-.1-.1-.2-.2c-.8-2.2-2.8-4.1-6.7-4.1-2.5,0-5.9.6-5.9,3.8,0,3.8,3.7,3.7,8.5,4.4,5.7.8,6.5,3.4,6.5,5.4C424.7,237.1,419,238.8,414.3,238.8Zm44.5-.7c-1.2.1-2.6.2-3.4.2s-2.9-.1-5.7-.1h-4.2c-.6,0-1,.1-1.5.1a2.39,2.39,0,0,1-.9-.1c0-.2.3-.2.6-.3,1.3-.4,2-1.3,2-3.3V221.4c0-1.7-.1-2.6-1.3-3.1-.3-.1-.5-.2-.5-.3s.4-.2.7-.2h10.9c3,0,8.3.8,8.3,4.5s-4,4.5-6.8,4.7v.1c3.4.1,8.7,1.4,8.7,5.6C465.8,236.5,461.8,237.7,458.8,238.1Zm-4.2-19.5h-5.2v8.2h3.9c4.5,0,6.5-1.7,6.5-4.3C459.9,220.2,458.1,218.6,454.6,218.6Zm.3,9h-5.4v5.9c0,3.1.2,3.8,2.3,3.8h4.5c3.3,0,5.4-1.5,5.4-5C461.6,228.6,457.3,227.6,454.9,227.6Zm28.5,11.2c-6.2,0-12-4.3-12-10.8s5.8-10.8,12-10.8,12,4.3,12,10.8S489.6,238.8,483.4,238.8Zm0-20.8c-5.8,0-7.8,5.3-7.8,10s2,10,7.8,10,7.8-5.3,7.8-10S489.2,218,483.4,218Zm40.4.2c-1,.6-2.2,2-2.2,5.2V230c0,6.1-2.9,8.7-9,8.7-4.9,0-9.8-1.1-9.8-6.8V220.5c0-1.3-.3-2.4-1.4-2.6a1.24,1.24,0,0,1-.3-.2c0-.1.2-.1.5-.1.5,0,2,.1,3.1.1s2.5-.1,3.1-.1c.3,0,.5,0,.5.1a1.44,1.44,0,0,0-.3.2c-1,.3-1.4,1.3-1.4,2.6v11.3c0,4,2.9,6.1,6.8,6.1,5.3,0,7.6-2.4,7.6-7.9v-6.6c0-3.2-.9-4.7-2.2-5.3-.2-.1-.4-.2-.4-.3s.2-.1.3-.1c.9,0,1.2.1,2.7.1,1.3,0,2.3-.1,2.6-.1s.5,0,.5.1A5.74,5.74,0,0,0,523.8,218.2Zm26.5,4.1c-.1,0-.3-.3-.6-.5a9.45,9.45,0,0,0-6.7-3.1c-1.4,0-2,.2-2,1.5v14.7c0,1.6.4,2.8,1.9,3.1.3.1.5.2.5.3s-.1.2-.3.2-2.2-.1-4-.1-3.7.1-3.9.1-.3-.1-.3-.2.3-.1.6-.3c1.5-.6,1.7-1.6,1.7-4.5V220.2c0-1.2-.5-1.5-2-1.5a9.86,9.86,0,0,0-6.7,3.1c-.2.2-.5.5-.6.5a.22.22,0,0,1-.2-.2,4.07,4.07,0,0,1,.2-.7l1-3.6h20l1,3.6a4.08,4.08,0,0,1,.2.7C550.5,222.2,550.4,222.3,550.3,222.3Zm11.9,15.9c-1.3,0-2.2-.1-3.6-.1s-2.3.1-3.6.1c-.2,0-.4,0-.4-.2s.3-.2.6-.3c1.2-.6,1.5-1.8,1.5-3.4V220.5c0-1.5-.4-2.3-1.2-2.5-.1,0-.3-.1-.3-.2s.1-.3.4-.3,2,.1,3.1.1,2.5-.1,2.7-.1.4,0,.4.3c0,.1-.3.2-.5.3a1.85,1.85,0,0,0-.8,1.7v14.7c0,1.7.5,2.6,1.7,3.1.3.2.5.1.5.3A.48.48,0,0,1,562.2,238.2Zm17.9.6h0c3.5.2,8.5,3.6,9.8,3.6a3.09,3.09,0,0,0,1.1-.2h.3c.1,0,.1.1.1.2s-.3.3-.9.5l-4.3,1.8-4.8-2.7c-1.9-1.1-3.5-1.9-4.7-1.9-1,0-1.8.7-2.9,1.6l-.1-1c1.5-.8,3.1-1.8,4.8-1.9v-.1c-5.8-.4-11-4.5-11-10.7,0-6.5,5.8-10.8,12-10.8s12,4.3,12,10.8C591.7,234.4,586.1,238.6,580.1,238.8Zm-.4-20.8c-5.8,0-7.8,5.3-7.8,10s2,10,7.8,10,7.8-5.3,7.8-10S585.5,218,579.7,218Zm40.4.2c-1,.6-2.2,2-2.2,5.2V230c0,6.1-2.9,8.7-9,8.7-4.9,0-9.8-1.1-9.8-6.8V220.5c0-1.3-.3-2.4-1.4-2.6a1.24,1.24,0,0,1-.3-.2c0-.1.2-.1.5-.1.5,0,2,.1,3.1.1s2.5-.1,3.1-.1c.3,0,.5,0,.5.1a1.44,1.44,0,0,0-.3.2c-1,.3-1.4,1.3-1.4,2.6v11.3c0,4,2.9,6.1,6.8,6.1,5.3,0,7.6-2.4,7.6-7.9v-6.6c0-3.2-.9-4.7-2.2-5.3-.2-.1-.4-.2-.4-.3s.2-.1.3-.1c.9,0,1.2.1,2.7.1,1.3,0,2.3-.1,2.6-.1s.5,0,.5.1A5.75,5.75,0,0,0,620.1,218.2Zm26.1,15.4-1.4,4.6H625.4c-.7,0-1,0-1-.1s.7-.3.9-.5c1.2-.9,1.4-1.8,1.4-4.7V222c0-2.1-.1-3.4-1.4-3.8-.2-.1-.5-.2-.5-.3s.1-.2.6-.2h18l.9,3a4.22,4.22,0,0,1,.3,1.2c0,.1-.1.3-.2.3a.54.54,0,0,1-.4-.3c-1.3-2.2-4.7-3.3-7.7-3.3h-5.9V227h5.9c2.3,0,4.4-1.1,4.8-2.4q.15-.3.3-.3c.1,0,.1.2.1.5V230c0,.5,0,.7-.1.7s-.2-.2-.3-.4c-.9-2.4-3.5-2.5-5.8-2.5h-4.9v6.7c0,2.3.8,2.8,3,2.8H637a13.41,13.41,0,0,0,8.3-3.5,7.61,7.61,0,0,1,.9-.7c.1,0,.1,0,.1.1A.6.6,0,0,0,646.2,233.6ZM453.4,63.6a24.32,24.32,0,0,0-7-18.1,26.08,26.08,0,0,0-11.7-7,24.4,24.4,0,0,0-13.4.1,24.41,24.41,0,0,0,.7-13.4,24.42,24.42,0,0,0-6.5-12,24.61,24.61,0,0,0-17.7-7.8,24.32,24.32,0,0,0-18.1,7,41.45,41.45,0,0,0-10.5,16.8A61.75,61.75,0,0,0,365.7,49a153.61,153.61,0,0,0,1,18.4c.1,1.2.3,2.4.4,3.5,0-1.1-.1-2.3-.1-3.5,0-2.6.1-5.2.2-8a51.27,51.27,0,0,1,3.5-15.2,37.27,37.27,0,0,1,8.8-13.3,21,21,0,0,1,14.1-6.1,16.44,16.44,0,0,1,13.2,5.1,17.07,17.07,0,0,1,4.4,8.9,19.28,19.28,0,0,1-1.1,10.3,19.1,19.1,0,0,1,10.3-.7,15.73,15.73,0,0,1,8.6,4.8,16.28,16.28,0,0,1,4.5,13.5,21.11,21.11,0,0,1-6.7,13.9A36.56,36.56,0,0,1,413,88.7a51.41,51.41,0,0,1-15,2.9,92.27,92.27,0,0,1-10.4-.3,12.86,12.86,0,0,1,1.9.4,118.09,118.09,0,0,0,18.9,2A69.57,69.57,0,0,0,427.8,91a41.93,41.93,0,0,0,17.5-9.6A24,24,0,0,0,453.4,63.6ZM346.9,52.1q-4.05,4.95-3,10.5a19.6,19.6,0,0,0,5,9.8,36.1,36.1,0,0,0,9.2,7.4,103.44,103.44,0,0,0,10.1,4.9c.7.3,1.4.6,2,.8-.6-.3-1.2-.6-1.9-1a43.61,43.61,0,0,1-4.1-2.4,27.89,27.89,0,0,1-6.8-6.1,17.4,17.4,0,0,1-3.8-8,10.69,10.69,0,0,1,2-8.4C361.9,51.2,351.8,45.9,346.9,52.1Z" transform="translate(-4 -5.39)"/></svg>