<svg id="Слой_1" data-name="Слой 1" xmlns="http://www.w3.org/2000/svg" xmlns:xlink="http://www.w3.org/1999/xlink" viewBox="0 0 285.2 80.5"><defs><style>.cls-1{fill:#20aa4d;}.cls-2{fill:url(#linear-gradient);}</style><linearGradient id="linear-gradient" x1="358.4" y1="173.35" x2="442.49" y2="173.35" gradientTransform="matrix(1, 0, 0, -1, 0, 300)" gradientUnits="userSpaceOnUse"><stop offset="0.01" stop-color="#00a7e3"/><stop offset="0.34" stop-color="#009edc"/><stop offset="0.87" stop-color="#0085c9"/><stop offset="1" stop-color="#007ec4"/></linearGradient></defs><title>pay-mir</title><path class="cls-1" d="M316.1,118.7l-18,39h-1.8V110.2H270.7v80.4h21.7a14.64,14.64,0,0,0,13.3-8.5l18-39h1.8v47.5h25.6V110.2H329.4a14.64,14.64,0,0,0-13.3,8.5" transform="translate(-157.2 -110.1)"/><path class="cls-1" d="M220.1,120.7l-10.7,37h-1.8l-10.7-37a14.58,14.58,0,0,0-14.1-10.6H157.2v80.4h25.6V143h1.8l14.6,47.5h18.3L232.1,143h1.8v47.5h25.6V110.1H233.9a14.74,14.74,0,0,0-13.8,10.6" transform="translate(-157.2 -110.1)"/><path class="cls-1" d="M362.1,146.7v43.9h25.5V165h27.5a27.28,27.28,0,0,0,25.8-18.3Z" transform="translate(-157.2 -110.1)"/><path class="cls-2" d="M415.1,110.2H358.4a40.17,40.17,0,0,0,39.5,32.9h44a25,25,0,0,0,.5-5.5,27.29,27.29,0,0,0-27.3-27.4" transform="translate(-157.2 -110.1)"/></svg>