<svg id="svg10306" xmlns="http://www.w3.org/2000/svg" xmlns:xlink="http://www.w3.org/1999/xlink" viewBox="0 0 498.47 161.06"><defs><style>.cls-1{fill:url(#New_Gradient_Swatch);}</style><linearGradient id="New_Gradient_Swatch" x1="52.28" y1="242.47" x2="550.75" y2="242.47" gradientUnits="userSpaceOnUse"><stop offset="0" stop-color="#222357"/><stop offset="1" stop-color="#254aa5"/></linearGradient></defs><title>pay-visa</title><path class="cls-1" d="M309.49,213.33c-.49,22.41,19.94,34.89,35.4,42.41s20.94,12.46,20.94,19.44c0,10.47-12.46,15-23.93,15.45-20.44.5-31.9-5.48-41.37-10l-7.48,33.9c9.47,4.49,26.92,8,44.86,8.47,42.37,0,69.79-20.94,70.28-53.34,0-40.92-56.82-43.37-56.33-61.82,0-5.48,5.48-11.46,17-13,6-1,21.43-1.5,39.88,7l7-32.9a106.94,106.94,0,0,0-37.88-7c-39.88,0-67.79,20.94-68.29,51.34m174-48.85c-7.48,0-14.46,4.49-17,11.46L405.7,320h42.37l8.47-23.43h51.84l5,23.43h37.37l-32.4-155.52H483.46m6,42.37,12,58.32h-33.4l21.43-58.32M258.65,164.48,225.25,320h40.38L299,164.48H258.65m-59.82,0L157,270.15,140,180.43c-2-10-10-16-18.44-16H53.28l-1,4.49c14,3,29.91,8,39.88,13.46,6,3,7.48,6,9.47,13.46L133.53,320H175.9l65.3-155.48H198.83" transform="translate(-52.28 -161.94)"/></svg>