<svg id="Layer_1" data-name="Layer 1" xmlns="http://www.w3.org/2000/svg" viewBox="0 0 40 40"><defs><style>.cls-1{fill:none;stroke:#000;stroke-miterlimit:10;}</style></defs><title>social-down-vk</title><path class="cls-1" d="M19.8.5A19.5,19.5,0,1,1,.5,20.2q0-.1,0-.2A19.36,19.36,0,0,1,19.72.5Z" transform="translate(0 0)"/><path d="M27,20.95s3.3-4.66,3.63-6.19c.11-.55-.13-.85-.7-.85H27.06a1,1,0,0,0-1.09.7A25.94,25.94,0,0,1,22.53,20c-.6.67-.91.87-1.25.87s-.39-.22-.39-.83V14.72c0-.74-.09-1-.7-1H15.61a.5.5,0,0,0-.57.48c0,.7,1.07.86,1.07,2.75V20.9c0,.79,0,1.09-.42,1.09-1,0-3.32-3.39-4.63-7.23-.26-.79-.55-1-1.29-1H6.91a.68.68,0,0,0-.72.7c0,.76.9,4.31,4.41,9,2.36,3.19,5.46,4.92,8.26,4.92,1.7,0,2.12-.28,2.12-1V25c0-.61.24-.87.59-.87s1.09.13,2.71,1.73c1.92,1.84,2.05,2.6,3.1,2.6H30.6c.33,0,.63-.15.63-.7,0-.72-.94-2-2.38-3.54-.59-.79-1.55-1.64-1.86-2S26.69,21.43,27,20.95Z" transform="translate(0 0)"/></svg>