<svg id="Layer_1" data-name="Layer 1" xmlns="http://www.w3.org/2000/svg" viewBox="0 0 30 30.4"><defs><style>.cls-1{fill:#fff;}</style></defs><title>social-line-insta</title><path d="M50,34.8A15.2,15.2,0,1,1,35,50,15.09,15.09,0,0,1,50,34.8Z" transform="translate(-35 -34.8)"/><path class="cls-1" d="M53.2,58.2H46.8a4.69,4.69,0,0,1-4.7-4.7V46.6a4.69,4.69,0,0,1,4.7-4.7h6.4a4.69,4.69,0,0,1,4.7,4.7v6.9A4.63,4.63,0,0,1,53.2,58.2ZM46.8,43.4a3.33,3.33,0,0,0-3.3,3.3v6.9a3.33,3.33,0,0,0,3.3,3.3h6.4a3.33,3.33,0,0,0,3.3-3.3V46.7a3.33,3.33,0,0,0-3.3-3.3Z" transform="translate(-35 -34.8)"/><path class="cls-1" d="M50,54.3A4.27,4.27,0,0,1,45.7,50,4.57,4.57,0,0,1,47,46.9a3.65,3.65,0,0,1,3-1.1,4.7,4.7,0,0,1,3.2,1.3,4.43,4.43,0,0,1,1.1,3,4.71,4.71,0,0,1-1.2,3A4.65,4.65,0,0,1,50,54.3Zm-.1-7.1a2.5,2.5,0,0,0-1.8.8,2.72,2.72,0,0,0-.9,2.1,2.8,2.8,0,0,0,5.6,0,2.73,2.73,0,0,0-2.9-2.9Z" transform="translate(-35 -34.8)"/><circle class="cls-1" cx="19.4" cy="10.9" r="1"/></svg>