<svg id="Layer_1" data-name="Layer 1" xmlns="http://www.w3.org/2000/svg" viewBox="0 0 25.9 21.4"><title>social-reg-twitter</title><path d="M25.3,9.7v.7a14.73,14.73,0,0,1-1,5.4,16.27,16.27,0,0,1-2.9,4.9,12.67,12.67,0,0,1-4.8,3.6,15.46,15.46,0,0,1-6.5,1.4A14.51,14.51,0,0,1,2,23.3c.4,0,.8.1,1.3.1a10.39,10.39,0,0,0,6.6-2.3A4.89,4.89,0,0,1,6.8,20a5.8,5.8,0,0,1-1.9-2.7,3.4,3.4,0,0,0,1,.1,6.75,6.75,0,0,0,1.4-.2,5.62,5.62,0,0,1-3.1-1.9A5.23,5.23,0,0,1,3,11.9v-.1a4.81,4.81,0,0,0,2.4.7A5.33,5.33,0,0,1,3.1,8a5,5,0,0,1,.8-2.7,14.29,14.29,0,0,0,4.8,4,14.18,14.18,0,0,0,6.1,1.6,5,5,0,0,1-.2-1.2,4.92,4.92,0,0,1,1.6-3.8,5.23,5.23,0,0,1,3.7-1.6A5.07,5.07,0,0,1,23.8,6a10.87,10.87,0,0,0,3.4-1.3,5.35,5.35,0,0,1-2.3,3,8,8,0,0,0,3-.9,10.24,10.24,0,0,1-2.6,2.9Z" transform="translate(-2 -4.3)"/></svg>