<svg id="Layer_1" data-name="Layer 1" xmlns="http://www.w3.org/2000/svg" viewBox="0 0 30 30.4"><defs><style>.cls-1{fill:#fff;}</style></defs><title>social-line-vk</title><path d="M49.8,35.3a15.2,15.2,0,1,1-15,15.2A15.09,15.09,0,0,1,49.8,35.3Z" transform="translate(-34.8 -35.3)"/><path class="cls-1" d="M55.47,51.65s2.47-3.49,2.72-4.63c.08-.41-.1-.64-.52-.64H55.52a.78.78,0,0,0-.82.52,19.43,19.43,0,0,1-2.57,4c-.45.5-.68.65-.93.65s-.29-.17-.29-.62V47c0-.56-.07-.72-.52-.72H46.94a.38.38,0,0,0-.43.36c0,.52.8.64.8,2.06v2.93c0,.59,0,.82-.31.82-.74,0-2.49-2.54-3.47-5.42-.2-.59-.41-.75-1-.75H40.43a.51.51,0,0,0-.54.52c0,.57.67,3.22,3.31,6.78C45,56,47.29,57.25,49.38,57.25c1.28,0,1.59-.21,1.59-.75V54.66c0-.46.18-.65.44-.65s.81.09,2,1.29c1.44,1.38,1.54,1.95,2.32,1.95h2.41c.25,0,.47-.11.47-.52s-.7-1.51-1.78-2.65c-.44-.59-1.16-1.23-1.39-1.52S55.24,52,55.47,51.65Z" transform="translate(-34.8 -35.3)"/></svg>