<svg id="Layer_1" data-name="Layer 1" xmlns="http://www.w3.org/2000/svg" viewBox="0 0 39.6 40"><defs><style>.cls-1{fill:none;stroke:#000;stroke-miterlimit:10;}</style></defs><title>social-down-ok</title><path class="cls-1" d="M49.8,31A19.5,19.5,0,1,1,30.5,50.5,19.36,19.36,0,0,1,49.8,31Z" transform="translate(-30 -30.5)"/><path d="M57,52.6a.75.75,0,0,0-.1.5,2.18,2.18,0,0,1-.7.9,11.4,11.4,0,0,1-3.4,1.5c-.1,0-.1,0-.2.1s.1.1.1.2L56,59.1a1.9,1.9,0,0,1,.5,1.3,1.75,1.75,0,0,1-1.1,1.7,1.91,1.91,0,0,1-2-.4l-3.2-3.2c-.3-.3-.2-.3-.5,0l-3.2,3.2a1.75,1.75,0,0,1-2.8-.4A2,2,0,0,1,44,59l3.3-3.3.2-.2-1.1-.3A12.27,12.27,0,0,1,43.8,54a1.87,1.87,0,0,1-.5-2.5,1.76,1.76,0,0,1,2.5-.5,6,6,0,0,0,2.2.9,8.42,8.42,0,0,0,6.2-.9A1.8,1.8,0,0,1,57,52.3v.3Z" transform="translate(-30 -30.5)"/><path d="M50,50.4a6.23,6.23,0,0,1-6.2-6.2A6.3,6.3,0,0,1,50,38a6.17,6.17,0,0,1,6.2,6.2A6.23,6.23,0,0,1,50,50.4Zm0-3.7a2.6,2.6,0,0,0,0-5.2,2.65,2.65,0,0,0-2.6,2.6A2.58,2.58,0,0,0,50,46.7Z" transform="translate(-30 -30.5)"/></svg>