<svg id="Layer_1" data-name="Layer 1" xmlns="http://www.w3.org/2000/svg" viewBox="0 0 30 30.4"><defs><style>.cls-1{fill:#fff;}</style></defs><title>social-line-ok</title><path d="M49.8,35.3a15.2,15.2,0,1,1-15,15.2A15.09,15.09,0,0,1,49.8,35.3Z" transform="translate(-34.8 -35.3)"/><path class="cls-1" d="M55.4,52.1c-.1.1-.1.2-.1.4a4.23,4.23,0,0,1-.5.7,15.08,15.08,0,0,1-2.6,1.2c-.1,0-.1,0-.2.1s.1.1.1.2l2.6,2.6a1.53,1.53,0,0,1,.4,1,1.29,1.29,0,0,1-.9,1.3,1.61,1.61,0,0,1-1.6-.3l-2.5-2.5c-.2-.2-.2-.2-.4,0l-2.5,2.5A1.43,1.43,0,0,1,45,59a1.72,1.72,0,0,1,.2-1.8l2.6-2.6.2-.2a2.39,2.39,0,0,0-.9-.2,7.22,7.22,0,0,1-2-.9,1.42,1.42,0,0,1-.4-1.9,1.32,1.32,0,0,1,1.9-.4,5.09,5.09,0,0,0,1.7.7,6.21,6.21,0,0,0,4.8-.7,1.44,1.44,0,0,1,2.2,1h0A.1.1,0,0,1,55.4,52.1Z" transform="translate(-34.8 -35.3)"/><path class="cls-1" d="M50,50.4a4.87,4.87,0,0,1-4.8-4.8A4.94,4.94,0,0,1,50,40.8a4.8,4.8,0,0,1,4.8,4.8A4.87,4.87,0,0,1,50,50.4Zm0-2.9a2,2,0,1,0-2-2A1.89,1.89,0,0,0,50,47.5Z" transform="translate(-34.8 -35.3)"/></svg>