<svg id="Layer_1" data-name="Layer 1" xmlns="http://www.w3.org/2000/svg" viewBox="0 0 39.6 40"><defs><style>.cls-1{fill:none;stroke:#000;stroke-miterlimit:10;}</style></defs><title>social-down-insta</title><path class="cls-1" d="M49.8,31A19.5,19.5,0,1,1,30.5,50.5,19.36,19.36,0,0,1,49.8,31Z" transform="translate(-30 -30.5)"/><path d="M54.2,60.6H45.8a6.23,6.23,0,0,1-6.2-6.2v-9a6.23,6.23,0,0,1,6.2-6.2h8.4a6.23,6.23,0,0,1,6.2,6.2v9A6.17,6.17,0,0,1,54.2,60.6ZM45.8,41.3a4.33,4.33,0,0,0-4.3,4.3v9a4.33,4.33,0,0,0,4.3,4.3h8.4a4.33,4.33,0,0,0,4.3-4.3v-9a4.33,4.33,0,0,0-4.3-4.3Z" transform="translate(-30 -30.5)"/><path d="M50,55.5a5.59,5.59,0,0,1-5.6-5.6,5.44,5.44,0,0,1,1.7-4A5.19,5.19,0,0,1,50,44.4a6,6,0,0,1,4.2,1.7A5.64,5.64,0,0,1,55.6,50,5.47,5.47,0,0,1,50,55.5Zm-.1-9.2a3.69,3.69,0,0,0-2.4,1A3.57,3.57,0,0,0,46.3,50,3.69,3.69,0,0,0,50,53.7,3.76,3.76,0,0,0,53.7,50,3.34,3.34,0,0,0,50,46.4Z" transform="translate(-30 -30.5)"/><circle cx="25.7" cy="13.8" r="1.3"/></svg>