<svg id="Layer_1" data-name="Layer 1" xmlns="http://www.w3.org/2000/svg" viewBox="0 0 30 30.4"><defs><style>.cls-1{fill:#fff;}</style></defs><title>social-line-fb</title><path d="M49.8,35.3a15.2,15.2,0,1,1-15,15.2A15.09,15.09,0,0,1,49.8,35.3Z" transform="translate(-34.8 -35.3)"/><path class="cls-1" d="M50.6,50.9h2.5l.3-3H50.6V46.4a1.44,1.44,0,0,1,.2-.9,1.66,1.66,0,0,1,1-.3h1.6v-3H50.9c-1.4,0-2.4.3-2.9,1a4.68,4.68,0,0,0-.8,3V48H45v3h2.3v8.8h3.4l-.1-8.9Z" transform="translate(-34.8 -35.3)"/></svg>